<svg xmlns="http://www.w3.org/2000/svg" width="32" height="32" data-name="Layer 1" viewBox="0 0 32 32"><path d="M0 0v32h32V0zm27.84 14.873c-.893 3.194-4.153 4.014-7.053 3.52 5.066.86 6.36 3.72 3.573 6.58-5.287 5.427-7.6-1.36-8.193-3.1-.107-.32-.16-.466-.16-.34 0-.126-.054.02-.16.34-.594 1.74-2.907 8.527-8.194 3.1-2.786-2.86-1.493-5.72 3.574-6.58-2.9.494-6.16-.32-7.054-3.52-.26-.92-.693-6.586-.693-7.353 0-3.833 3.36-2.627 5.433-1.073H8.9c2.873 2.16 5.967 6.533 7.1 8.88 1.133-2.347 4.227-6.72 7.1-8.88 2.073-1.554 5.433-2.76 5.433 1.073 0 .767-.44 6.433-.693 7.353"/></svg>