<svg xmlns="http://www.w3.org/2000/svg" width="32" height="32"><path d="M16 17L.7 11.6l15-3.3 15.5 3L16 17zM4.7 11.8l3.6 1.3 7.8 2.7 11.1-4.2-11.5-2.2-11 2.4z"/><path d="M16 12.8c-.8 0-1.4-.4-1.4-1s.6-1 1.4-1c.3 0 .6.1.9.2.4.2.6.5.6.8s-.2.6-.5.8c-.4.1-.7.2-1 .2zM16.1 24.6l-.4-.4c-1.7-1.7-4.8-2.7-7.7-2.6h-.6V21c0-2.4 0-5-.1-7.5h1.1c0 2.3.1 4.7.1 6.9 2.8 0 5.8 1 7.6 2.5 1.8-1.5 4.8-2.9 7.5-2.7V17v-3.8h1.1v8.2l-.6-.1c-2.7-.4-6 1.1-7.6 2.7l-.4.6z"/><path d="M26.9 16.8h-.8V13l-9.3-.8.1-.8 10 .9zM26.3 16.9l-1 5.7c.2-.2.7-.5 1.4-.5 1-.1 1.7.4 1.9.5-.5-1.8-1.4-3.9-1.9-5.7"/><circle cx="26.5" cy="16.9" r=".6"/></svg>