<svg xmlns="http://www.w3.org/2000/svg" id="Layer_1" data-name="Layer 1" viewBox="0 0 44 44"><defs><style>.cls-1{fill:currentColor}</style></defs><path d="M21.61 44h.38zM22 0C9.85 0 0 9.85 0 22s8.87 20.99 20.16 21.92c-.57-.05-1.14-.12-1.7-.21V28.18h-5.57v-6.33h5.57v-4.82c.02-2.26.5-4.62 2.4-6.46 1.32-1.28 3.22-2.03 5.88-2.06 1.71.02 3.34.17 4.9.42v5.39h-2.76c-.98 0-1.79.22-2.43.7-.78.63-1.14 1.56-1.14 2.72v4.11h6.08l-.98 6.33h-5.1v15.57c-.94.14-1.89.22-2.87.24C34.39 43.75 44 34 44 21.99S34.15 0 22 0M22 44h.39zM20.25 43.93c.12 0 .24.02.37.03-.12 0-.24-.02-.37-.03M21.13 43.98c.12 0 .24 0 .36.01-.12 0-.24 0-.36-.01M21.01 43.98c-.09 0-.18 0-.27-.01.09 0 .18 0 .27.01" class="cls-1"/></svg>