<svg xmlns="http://www.w3.org/2000/svg" id="Layer_1" width="32" height="32" data-name="Layer 1" viewBox="0 0 32 32"><defs><style>.cls-1{fill:currentColor}</style></defs><path d="M15.716 32h.277zM16 0C7.164 0 0 7.164 0 16s6.45 15.265 14.662 15.942q-.624-.055-1.237-.153V20.495h-4.05V15.89h4.05v-3.506c.015-1.643.364-3.36 1.746-4.698.96-.93 2.342-1.476 4.276-1.498 1.244.015 2.43.124 3.564.306v3.92h-2.007c-.713 0-1.302.16-1.768.509-.567.458-.829 1.134-.829 1.978v2.989h4.422l-.713 4.604h-3.709v11.323c-.683.102-1.374.16-2.087.175 8.69-.175 15.68-7.266 15.68-16S24.836 0 16 0M16 32h.284zM14.727 31.95c.088 0 .175.014.27.02-.088 0-.175-.014-.27-.02M15.367 31.985q.132-.002.262.008c-.087 0-.174 0-.262-.008M15.28 31.985q-.097.002-.196-.007.097-.002.196.007" class="cls-1"/></svg>