<svg xmlns="http://www.w3.org/2000/svg" id="Layer_1" data-name="Layer 1" viewBox="0 0 44 44"><defs><style>.cls-1{fill:currentColor}</style></defs><path d="M32.86 20.47c0-1.22 0-2.38-.07-3.81v-.02c-.04-.98-.19-1.8-.45-2.43v-.03l-.02-.03c-.21-.56-.53-1.04-.97-1.49l-.02-.02-.02-.02c-.38-.4-.87-.71-1.48-.95-.7-.28-1.51-.43-2.41-.45h-.08c-.8-.05-2.22-.08-4.2-.08h-2.22c-1.98 0-3.39.03-4.2.08h-.08c-.9.02-1.71.18-2.41.45-.61.24-1.1.55-1.48.95l-.02.02-.02.02c-.45.45-.77.93-.97 1.49v.03l-.02.03c-.25.63-.4 1.45-.45 2.43v.02c-.07 1.43-.07 2.58-.07 3.81v3.06c0 1.22 0 2.38.07 3.81v.02c.04.98.19 1.8.45 2.43v.03l.02.03c.21.56.53 1.04.97 1.49l.02.02.02.02c.38.4.87.71 1.48.95.7.28 1.51.43 2.41.45h.08c.8.05 2.22.08 4.2.08h2.22c1.98 0 3.39-.03 4.2-.08h.08c.9-.02 1.71-.18 2.41-.45.61-.24 1.1-.55 1.48-.95l.02-.02.02-.02c.45-.45.77-.93.97-1.49v-.03l.02-.03c.25-.63.4-1.45.45-2.43v-.02c.07-1.43.07-2.58.07-3.81v-3.06M22 28.8c-3.76 0-6.8-3.05-6.8-6.8s3.05-6.8 6.8-6.8 6.8 3.05 6.8 6.8-3.05 6.8-6.8 6.8m7.07-12.28c-.88 0-1.59-.71-1.59-1.59s.71-1.59 1.59-1.59 1.59.71 1.59 1.59-.71 1.59-1.59 1.59" class="cls-1"/><path d="M22 17.58c-2.44 0-4.42 1.98-4.42 4.42s1.98 4.42 4.42 4.42 4.42-1.98 4.42-4.42-1.98-4.42-4.42-4.42" class="cls-1"/><path d="M22 0C9.85 0 0 9.85 0 22s9.85 22 22 22 22-9.85 22-22S34.15 0 22 0m13.25 22c-.02 1.89.03 3.38-.08 5.46-.05 1.17-.23 2.26-.62 3.22-.34.9-.86 1.68-1.53 2.35-.63.66-1.41 1.17-2.35 1.53-.97.38-2.04.58-3.22.61-1.1.07-3.03.09-5.46.08-2.43 0-4.37 0-5.46-.08-1.18-.03-2.25-.24-3.22-.61-.93-.36-1.72-.87-2.35-1.53a6.5 6.5 0 0 1-1.53-2.35c-.38-.96-.57-2.04-.62-3.22-.08-1.59-.08-2.84-.08-4.19V22c.02-1.89-.03-3.39.08-5.46.05-1.17.23-2.26.62-3.22.34-.9.86-1.68 1.53-2.35.63-.66 1.41-1.17 2.35-1.53.97-.38 2.04-.58 3.22-.61 1.1-.07 3.03-.09 5.46-.08 2.43 0 4.37 0 5.46.08 1.18.03 2.25.24 3.22.61.93.36 1.72.87 2.35 1.53.67.67 1.19 1.44 1.53 2.35.38.96.57 2.04.62 3.22.08 1.59.08 2.84.08 4.19z" class="cls-1"/></svg>