<svg xmlns="http://www.w3.org/2000/svg" xml:space="preserve" width="32" height="32" viewBox="0 0 32 32"><g fill="#333" fill-rule="evenodd" clip-rule="evenodd"><path d="M24.229 13.485a31 31 0 0 0-.132-2.368c-.076-.752-.34-1.444-.847-2.029-.711-.818-1.648-1.162-2.685-1.225a74 74 0 0 0-3.547-.104q-1.767-.022-3.533.013c-.79.016-1.582.05-2.368.13-.752.076-1.444.341-2.028.849-.818.709-1.163 1.646-1.225 2.684a72 72 0 0 0-.105 3.548q-.022 1.766.015 3.533c.015.79.049 1.582.128 2.368.077.751.342 1.444.85 2.028.709.818 1.646 1.163 2.683 1.226 1.181.071 2.366.089 3.549.103 1.177.015 2.355.015 3.532-.015.869-.023 1.746-.039 2.602-.173 1.464-.23 2.453-1.078 2.847-2.53a6.6 6.6 0 0 0 .213-1.455c.05-1.355.059-2.713.086-4.07h-.031c0-.837.016-1.675-.005-2.513m-8.243 7.687a5.167 5.167 0 0 1-5.156-5.176 5.17 5.17 0 0 1 5.184-5.167 5.17 5.17 0 0 1 5.158 5.176 5.17 5.17 0 0 1-5.187 5.167m5.383-9.326a1.223 1.223 0 0 1-1.214-1.221 1.217 1.217 0 0 1 1.205-1.208 1.21 1.21 0 0 1 1.223 1.208c0 .674-.542 1.219-1.214 1.221"/><path d="M16.033 12.653c-1.873-.002-3.38 1.487-3.38 3.339a3.35 3.35 0 0 0 3.344 3.356c1.832 0 3.35-1.498 3.351-3.31.001-1.866-1.485-3.385-3.315-3.386"/><path d="M0 0v32h32V0zm26.063 19.315c-.011.062-.031.125-.031.188-.023.778-.059 1.554-.248 2.314-.431 1.714-1.425 2.96-3.06 3.668-.886.384-1.828.494-2.782.533-.21.009-.418.03-.627.045h-6.63c-.062-.011-.124-.03-.188-.031-.777-.023-1.554-.06-2.313-.25-1.714-.429-2.961-1.423-3.667-3.057-.384-.886-.494-1.828-.533-2.782-.01-.21-.03-.419-.046-.628v-6.629c.012-.062.03-.125.032-.188.023-.778.058-1.554.25-2.314.429-1.713 1.424-2.96 3.058-3.667.886-.383 1.827-.495 2.782-.533.209-.009.417-.03.626-.045h6.629c.064.01.125.03.189.032.779.023 1.554.058 2.313.248 1.714.43 2.96 1.424 3.667 3.059.385.886.495 1.828.534 2.782.01.21.031.418.045.627z"/></g></svg>