<svg xmlns="http://www.w3.org/2000/svg" id="Layer_1" width="32" height="32" data-name="Layer 1" viewBox="0 0 32 32"><defs><style>.cls-1{fill:currentColor}</style></defs><path d="M23.898 14.887c0-.887 0-1.73-.05-2.77v-.015c-.03-.713-.139-1.31-.328-1.767v-.022l-.015-.022a3.1 3.1 0 0 0-.705-1.084l-.015-.014-.014-.015c-.276-.29-.633-.516-1.076-.69-.51-.204-1.099-.313-1.753-.328h-.058c-.582-.036-1.615-.058-3.055-.058h-1.614c-1.44 0-2.466.022-3.055.058h-.058a5.2 5.2 0 0 0-1.753.327c-.444.175-.8.4-1.076.691l-.015.015-.014.014c-.328.328-.56.677-.706 1.084v.022l-.014.022c-.182.458-.291 1.054-.328 1.767v.014c-.05 1.04-.05 1.877-.05 2.771v2.226c0 .887 0 1.73.05 2.77v.015c.03.713.139 1.31.328 1.767v.022l.014.022c.153.407.386.756.706 1.084l.014.014.015.015c.276.29.632.516 1.076.69.51.204 1.098.313 1.753.328h.058c.582.036 1.615.058 3.055.058h1.614c1.44 0 2.466-.022 3.055-.058h.058a5.2 5.2 0 0 0 1.753-.327c.443-.175.8-.4 1.076-.691l.014-.015.015-.014c.327-.328.56-.677.705-1.084v-.022l.015-.022c.182-.458.29-1.054.327-1.767v-.014c.051-1.04.051-1.877.051-2.771v-2.226M16 20.945c-2.735 0-4.945-2.218-4.945-4.945s2.218-4.945 4.945-4.945 4.945 2.218 4.945 4.945-2.218 4.945-4.945 4.945m5.142-8.93c-.64 0-1.157-.517-1.157-1.157s.517-1.156 1.157-1.156 1.156.516 1.156 1.156-.516 1.157-1.156 1.157" class="cls-1"/><path d="M16 12.785a3.216 3.216 0 0 0 0 6.43 3.216 3.216 0 0 0 0-6.43" class="cls-1"/><path d="M16 0C7.164 0 0 7.164 0 16s7.164 16 16 16 16-7.164 16-16S24.836 0 16 0m9.636 16c-.014 1.375.022 2.458-.058 3.97-.036.852-.167 1.645-.45 2.343a4.8 4.8 0 0 1-1.113 1.709c-.459.48-1.026.85-1.71 1.113-.705.276-1.483.421-2.341.443-.8.051-2.204.066-3.971.058-1.768 0-3.178 0-3.971-.058a7 7 0 0 1-2.342-.443c-.676-.262-1.25-.633-1.71-1.113a4.7 4.7 0 0 1-1.112-1.71c-.276-.697-.414-1.483-.45-2.341-.059-1.156-.059-2.066-.059-3.047V16c.015-1.375-.022-2.465.058-3.97.037-.852.168-1.645.451-2.343a4.8 4.8 0 0 1 1.113-1.709A4.6 4.6 0 0 1 9.68 6.865c.705-.276 1.484-.421 2.342-.443.8-.051 2.203-.066 3.97-.058 1.768 0 3.179 0 3.972.058a7 7 0 0 1 2.341.443c.677.262 1.251.633 1.71 1.113a4.7 4.7 0 0 1 1.112 1.71c.277.697.415 1.483.451 2.341.058 1.156.058 2.066.058 3.047z" class="cls-1"/></svg>