<svg xmlns="http://www.w3.org/2000/svg" data-name="Layer 1" viewBox="0 0 44 44"><path d="M22 0C9.85 0 0 9.85 0 22s9.85 22 22 22 22-9.85 22-22S34.15 0 22 0m-6.61 33.92h-4.96V17.99h4.96zM12.91 15.8a2.86 2.86 0 1 1-.001-5.719 2.86 2.86 0 0 1 .001 5.719m21.04 18.12h-4.96v-7.88c.03-.48.03-.93 0-1.33-.13-1.94-.94-2.98-2.64-2.98-.45.02-.87.12-1.24.29-1.06.51-1.74 1.71-1.79 4.02v7.88h-4.96V17.99h4.77l.05 2.02c1.42-1.72 3.26-2.75 5.81-2.59 3.61.59 4.86 3.06 4.96 6.45v10.04Z" style="fill:currentColor"/></svg>