<svg xmlns="http://www.w3.org/2000/svg" width="32" height="32" viewBox="0 0 32 32"><title>map-marker</title><path d="M15.864 31.597a.7.7 0 0 1-.567-.315 148 148 0 0 1-4.335-7.712C8.064 18.002 6.59 14.108 6.59 12.028A9.28 9.28 0 0 1 9.387 5.49a9.16 9.16 0 0 1 6.602-2.634 9.276 9.276 0 0 1 9.173 9.16v.013c0 2.08-1.474 5.973-4.385 11.542a148 148 0 0 1-4.334 7.711.7.7 0 0 1-.58.316zm0-27.43a7.9 7.9 0 0 0-5.557 2.268A7.96 7.96 0 0 0 7.9 12.042c0 1.273.73 4.221 4.233 10.924a148 148 0 0 0 3.73 6.69 147 147 0 0 0 3.73-6.69c3.502-6.703 4.232-9.64 4.232-10.924-.025-2.092-.856-4.057-2.331-5.531s-3.44-2.306-5.531-2.332c-.026-.012-.064-.012-.101-.012z"/><path d="M31.122 31.987H.656c-.366 0-.656-.29-.656-.655s.29-.656.656-.656h30.466c.366 0 .656.29.656.656s-.29.655-.656.655M15.876 6.775c-2.848 0-5.166 2.319-5.166 5.166s2.319 5.165 5.166 5.165 5.165-2.318 5.165-5.165-2.318-5.166-5.165-5.166m2.608 7.447a6 6 0 0 1-.139-.316c-.164.77-.92 1.16-1.134 1.273-.063-.05-.252-.58-.642-.592-.366 0-.73.416-.756.466-.026-.05-.378-.466-.73-.454-.404.013-.606.543-.681.593-.214-.113-.946-.504-1.07-1.26 0 0-.14.303-.152.315-1.297-1.688 0-2.91.114-3.036.264-.327.15-.466.126-.58a1.5 1.5 0 0 1-.05-.667 3 3 0 0 0 .139-.58 2.2 2.2 0 0 0-.088-.503l.39-.151a.6.6 0 0 0 .19.353c.113.087.327.202.58.365.125.076.239.177.34.277.34-.075.68-.126 1.032-.126.34 0 .693.05 1.034.126.113-.1.226-.202.352-.277.265-.163.48-.277.593-.365.1-.1.176-.227.202-.378l.378.15c-.05.165-.101.328-.114.505.026.202.063.39.114.58.025.226 0 .453-.076.667-.038.113-.164.252.087.58.114.126 1.349 1.335-.037 3.036z"/></svg>