<svg xmlns="http://www.w3.org/2000/svg" id="Layer_1" data-name="Layer 1" viewBox="0 0 44 44"><defs><style>.cls-1{fill:currentColor}</style></defs><path d="m22.22 20.06-5.82-8.38h-3.12l7.21 10.39.92 1.33 6.19 8.92h3.12l-7.58-10.93z" class="cls-1"/><path d="M22 0C9.85 0 0 9.85 0 22s9.85 22 22 22 22-9.85 22-22S34.15 0 22 0m9.81 33.89h-5.03l-1.09-1.57-5.34-7.69-7.98 9.26H10.3l9.12-10.59-8.06-11.62-1.09-1.57h6.94l1.09 1.57 4.97 7.16 7.52-8.73h2.07l-8.67 10.06 8.43 12.15 1.09 1.57H31.8Z" class="cls-1"/></svg>