<svg xmlns="http://www.w3.org/2000/svg" id="Layer_1" width="32" height="32" data-name="Layer 1" viewBox="0 0 32 32"><defs><style>.cls-1{fill:currentColor}</style></defs><path d="m16.16 14.59-4.233-6.095H9.658l5.244 7.556.669.967 4.502 6.487h2.269l-5.513-7.949z" class="cls-1"/><path d="M16 0C7.164 0 0 7.164 0 16s7.164 16 16 16 16-7.164 16-16S24.836 0 16 0m7.135 24.647h-3.659l-.792-1.142-3.884-5.592-5.804 6.734H7.491l6.633-7.702-5.862-8.45-.793-1.142h5.047l.793 1.142 3.615 5.207 5.469-6.35h1.505l-6.305 7.317 6.13 8.836.793 1.142h-1.389Z" class="cls-1"/></svg>