<svg xmlns="http://www.w3.org/2000/svg" id="Layer_1" width="32" height="32" data-name="Layer 1" viewBox="0 0 32 32"><defs><style>.cls-1{fill:currentColor}</style></defs><path d="M16 0C7.164 0 0 7.164 0 16s7.164 16 16 16 16-7.164 16-16S24.836 0 16 0m9.6 20.858a2.52 2.52 0 0 1-1.775 1.782c-.712.182-1.963.276-3.396.335s-3.033.072-4.436.087c-2.8-.037-6.415-.058-7.833-.422a2.52 2.52 0 0 1-1.775-1.782c-.283-.916-.421-3.367-.421-4.858s.138-3.942.421-4.858A2.52 2.52 0 0 1 8.16 9.36c.713-.182 1.964-.276 3.396-.335 1.433-.058 3.033-.072 4.437-.087 2.8.037 6.414.058 7.832.422a2.52 2.52 0 0 1 1.775 1.782c.276.916.422 3.367.422 4.858s-.138 3.942-.422 4.858" class="cls-1"/><path d="M13.95 18.982 19.184 16l-5.236-2.982z" class="cls-1"/></svg>