<svg xmlns="http://www.w3.org/2000/svg" id="Layer_1" data-name="Layer 1" viewBox="0 0 44 44"><defs><style>.cls-1{fill:currentColor}</style></defs><path d="M22 0C9.85 0 0 9.85 0 22s9.85 22 22 22 22-9.85 22-22S34.15 0 22 0m13.2 28.68a3.46 3.46 0 0 1-2.44 2.45c-.98.25-2.7.38-4.67.46s-4.17.1-6.1.12c-3.85-.05-8.82-.08-10.77-.58a3.46 3.46 0 0 1-2.44-2.45c-.39-1.26-.58-4.63-.58-6.68s.19-5.42.58-6.68c.23-.87.95-2.04 2.44-2.45.98-.25 2.7-.38 4.67-.46s4.17-.1 6.1-.12c3.85.05 8.82.08 10.77.58a3.46 3.46 0 0 1 2.44 2.45c.38 1.26.58 4.63.58 6.68s-.19 5.42-.58 6.68" class="cls-1"/><path d="m19.18 26.1 7.2-4.1-7.2-4.1z" class="cls-1"/></svg>