<?xml version="1.0" encoding="utf-8"?>
<!-- Generated by IcoMoon.io -->
<!DOCTYPE svg PUBLIC "-//W3C//DTD SVG 1.1//EN" "http://www.w3.org/Graphics/SVG/1.1/DTD/svg11.dtd">
<svg version="1.1" xmlns="http://www.w3.org/2000/svg" xmlns:xlink="http://www.w3.org/1999/xlink" width="32" height="32" viewBox="0 0 32 32">
<g id="icomoon-ignore">
</g>
<path d="M31.506 19.233c-0.033-1.089-0.264-2.111-0.627-3.101-0.462-1.254-1.188-2.375-2.045-3.398-0.198-0.231-0.363-0.429-0.528-0.66-0.198-0.264-0.363-0.561-0.462-0.891-0.165-0.429-0.165-0.891 0-1.32 0.165-0.396 0.264-0.792 0.363-1.221 0.132-0.66 0.165-1.32 0.132-1.979-0.033-0.363-0.099-0.726-0.198-1.089-0.132-0.462-0.264-0.924-0.33-1.386-0.033-0.264-0.066-0.528-0.099-0.759-0.033-0.363 0.033-0.693 0.099-1.056 0.099-0.462 0.231-0.924 0.33-1.419 0-0.033 0-0.066 0.033-0.099-0.627-0.264-1.221-0.495-1.848-0.759-0.033 0.066-0.033 0.132-0.066 0.198-0.099 0.363-0.231 0.693-0.429 0.99-0.165 0.231-0.33 0.462-0.594 0.627-0.462 0.297-0.924 0.594-1.353 0.891-0.363 0.231-0.759 0.462-1.122 0.726-0.627 0.396-1.221 0.891-1.748 1.419-0.066 0.066-0.099 0.066-0.165 0.033-0.66-0.165-1.32-0.297-1.979-0.396-0.528-0.066-1.023-0.132-1.551-0.165-0.594-0.033-1.155-0.066-1.748-0.033-0.33 0-0.66 0.033-0.99 0.066-0.396 0.033-0.792 0.099-1.188 0.132-0.561 0.066-1.089 0.165-1.65 0.297-0.165 0.033-0.363 0.066-0.528 0.132-0.066 0.033-0.099 0-0.165-0.033-0.495-0.495-1.023-0.924-1.584-1.287-0.429-0.297-0.858-0.561-1.287-0.825-0.396-0.264-0.792-0.495-1.188-0.759-0.528-0.33-0.891-0.792-1.089-1.386-0.066-0.165-0.099-0.297-0.132-0.462 0-0.033-0.033-0.066-0.033-0.099-0.627 0.264-1.221 0.495-1.848 0.759 0.033 0.132 0.066 0.264 0.099 0.396 0.132 0.462 0.231 0.957 0.33 1.452 0.066 0.396 0.066 0.825 0 1.221-0.099 0.594-0.231 1.155-0.396 1.715-0.198 0.66-0.231 1.32-0.165 2.012 0.033 0.594 0.132 1.155 0.297 1.716 0.066 0.165 0.099 0.33 0.165 0.462 0.198 0.495 0.165 0.99-0.033 1.485-0.165 0.396-0.396 0.759-0.66 1.056-0.429 0.495-0.825 0.99-1.188 1.551-0.726 1.089-1.254 2.243-1.551 3.497-0.132 0.528-0.198 1.056-0.231 1.616 0 0.066-0.033 0.165-0.033 0.231 0 0.264 0 0.528 0 0.759 0 0.066 0.033 0.132 0.033 0.198 0.099 1.715 0.627 3.332 1.452 4.817 0.396 0.726 0.858 1.419 1.353 2.111 0.033 0.033 0.033 0.033 0.066 0.066 0.231-0.528 0.429-1.023 0.66-1.518 0 0 0 0 0.033 0 0.033 0.066 0.033 0.165 0.066 0.231 0.264 1.155 0.792 2.144 1.518 3.068 0.627 0.792 1.386 1.452 2.21 2.012 0.462 0.33 0.924 0.594 1.452 0.891 0.033-0.033 0.066-0.066 0.099-0.099 0.066-0.132 0.165-0.264 0.231-0.396 0.198-0.363 0.396-0.693 0.66-1.023 0.231-0.33 0.495-0.627 0.825-0.858 0.297-0.231 0.594-0.363 0.924-0.462 0.363-0.066 0.726-0.066 1.089 0.033 0.429 0.132 0.792 0.297 1.155 0.561 0.594 0.396 1.089 0.858 1.551 1.386 0.066 0.066 0.099 0.132 0.165 0.198 0.033-0.033 0.033-0.033 0.066-0.066 0.363-0.495 0.825-0.891 1.287-1.287 0.363-0.264 0.726-0.495 1.122-0.66 0.297-0.132 0.594-0.198 0.924-0.231 0.462-0.033 0.858 0.099 1.254 0.33 0.363 0.231 0.627 0.495 0.891 0.825s0.495 0.66 0.693 1.023c0.099 0.198 0.231 0.363 0.33 0.561 0.033 0.066 0.066 0.099 0.099 0.132 0.033 0 0.033 0 0.033 0 0.858-0.462 1.65-0.99 2.408-1.65 0.726-0.627 1.386-1.353 1.88-2.177 0.429-0.726 0.726-1.485 0.891-2.309 0-0.033 0-0.033 0.033-0.099 0.231 0.528 0.429 1.023 0.66 1.551 0.033-0.033 0.033-0.033 0.033-0.033 0.858-1.155 1.616-2.375 2.111-3.695 0.297-0.759 0.495-1.551 0.627-2.342 0.066-0.33 0.099-0.66 0.099-0.99 0-0.066 0-0.099 0.033-0.165 0-0.198 0-0.429 0-0.627-0.033-0.099-0.033-0.132-0.033-0.165zM26.26 18.672c0 0.033 0 0.066 0 0.099 0 0.198-0.033 0.396-0.066 0.594-0.066 0.495-0.231 0.957-0.429 1.419-0.33 0.825-0.825 1.551-1.419 2.243 0 0-0.033 0-0.033 0.033-0.132-0.297-0.297-0.627-0.429-0.924 0 0.033 0 0.033-0.033 0.066-0.099 0.495-0.297 0.957-0.594 1.386-0.33 0.495-0.759 0.924-1.254 1.32s-1.023 0.693-1.584 0.99c0 0 0 0-0.033 0-0.033-0.033-0.033-0.066-0.066-0.099-0.066-0.099-0.132-0.231-0.231-0.33-0.132-0.231-0.297-0.429-0.462-0.627s-0.363-0.363-0.594-0.495c-0.264-0.132-0.528-0.231-0.825-0.198-0.231 0-0.429 0.066-0.627 0.132-0.264 0.099-0.528 0.231-0.759 0.396-0.33 0.231-0.627 0.495-0.858 0.759 0 0-0.033 0.033-0.033 0.033-0.033-0.033-0.066-0.099-0.099-0.132-0.297-0.33-0.627-0.594-1.023-0.858-0.231-0.132-0.495-0.264-0.759-0.33-0.231-0.066-0.462-0.066-0.726-0.033-0.231 0.033-0.429 0.132-0.627 0.264-0.198 0.165-0.396 0.33-0.561 0.528s-0.297 0.396-0.429 0.627c-0.066 0.066-0.099 0.165-0.165 0.231 0 0.033-0.033 0.033-0.066 0.066-0.33-0.165-0.66-0.33-0.957-0.528-0.528-0.363-1.056-0.759-1.452-1.221-0.495-0.561-0.825-1.155-1.023-1.848 0-0.033-0.033-0.099-0.033-0.165 0 0 0 0 0 0-0.132 0.297-0.297 0.627-0.429 0.924-0.033-0.033-0.033-0.033-0.033-0.033-0.33-0.396-0.627-0.825-0.891-1.287-0.528-0.924-0.891-1.88-0.957-2.936 0-0.033 0-0.066-0.033-0.099 0-0.165 0-0.297 0-0.462 0-0.033 0.033-0.099 0.033-0.132 0.033-0.33 0.066-0.66 0.165-0.99 0.198-0.759 0.561-1.485 1.023-2.111 0.231-0.33 0.495-0.627 0.792-0.924 0.198-0.198 0.33-0.396 0.429-0.66 0.132-0.297 0.165-0.594 0.033-0.891-0.033-0.099-0.066-0.198-0.099-0.297-0.099-0.33-0.165-0.693-0.198-1.056-0.033-0.396 0-0.825 0.132-1.221 0.099-0.33 0.198-0.693 0.264-1.023 0.033-0.231 0.033-0.495 0-0.726-0.066-0.297-0.132-0.594-0.198-0.858-0.033-0.066-0.033-0.165-0.066-0.231 0.396-0.165 0.825-0.297 1.221-0.462 0 0.033 0 0.033 0.033 0.066 0.033 0.099 0.066 0.198 0.099 0.264 0.132 0.363 0.363 0.627 0.726 0.825 0.264 0.132 0.528 0.297 0.792 0.462 0.297 0.165 0.561 0.33 0.858 0.495 0.363 0.231 0.726 0.495 1.056 0.792 0.033 0.033 0.066 0.033 0.099 0.033 0.099-0.033 0.231-0.066 0.33-0.066 0.363-0.066 0.726-0.132 1.089-0.165 0.264-0.033 0.528-0.066 0.792-0.066 0.231-0.033 0.429-0.033 0.66-0.033 0.396 0 0.759 0 1.155 0.033 0.33 0.033 0.693 0.066 1.023 0.099 0.429 0.066 0.891 0.132 1.32 0.231 0.033 0 0.066 0 0.132-0.033 0.363-0.33 0.726-0.627 1.155-0.858 0.264-0.132 0.495-0.297 0.759-0.429 0.297-0.165 0.594-0.363 0.891-0.528 0.165-0.099 0.297-0.231 0.396-0.363 0.132-0.198 0.231-0.396 0.297-0.594 0-0.033 0.033-0.066 0.033-0.132 0.396 0.165 0.825 0.297 1.221 0.462 0 0.033 0 0.033-0.033 0.066-0.066 0.297-0.165 0.561-0.231 0.858-0.066 0.198-0.099 0.429-0.066 0.627 0 0.165 0.033 0.297 0.066 0.462 0.066 0.297 0.132 0.561 0.231 0.825 0.066 0.231 0.132 0.429 0.132 0.66 0.033 0.396 0 0.792-0.099 1.221-0.066 0.264-0.132 0.495-0.231 0.726-0.099 0.264-0.099 0.528 0 0.792 0.066 0.198 0.198 0.363 0.33 0.528 0.099 0.132 0.231 0.264 0.363 0.396 0.561 0.627 1.023 1.287 1.353 2.045 0.264 0.594 0.396 1.221 0.429 1.88 0 0.033 0 0.033 0 0.066-0.099 0.165-0.099 0.297-0.099 0.429z" fill="#000000"></path>
</svg>
