<?xml version="1.0" encoding="UTF-8"?>
<svg id="Layer_1" xmlns="http://www.w3.org/2000/svg" version="1.1" viewBox="0 0 48 48">
  <!-- Generator: Adobe Illustrator 30.1.0, SVG Export Plug-In . SVG Version: 2.1.1 Build 136)  -->
  <defs>
    <style>
      .st0 {
        fill: #fff;
      }
    </style>
  </defs>
  <rect width="48" height="48"/>
  <path class="st0" d="M13.35,9.67c4.31,3.24,8.95,9.8,10.65,13.32,1.7-3.52,6.34-10.08,10.65-13.32,3.11-2.33,8.15-4.14,8.15,1.61,0,1.15-.66,9.65-1.04,11.03-1.34,4.79-6.23,6.02-10.58,5.28,7.6,1.29,9.54,5.58,5.36,9.87-7.93,8.14-11.4-2.04-12.29-4.65-.16-.48-.24-.7-.24-.51,0-.19-.08.03-.24.51-.89,2.61-4.36,12.79-12.29,4.65-4.18-4.29-2.24-8.58,5.36-9.87-4.35.74-9.24-.48-10.58-5.28-.39-1.38-1.04-9.88-1.04-11.03,0-5.75,5.04-3.94,8.15-1.61"/>
</svg>