<?xml version="1.0" encoding="UTF-8"?>
<svg id="Layer_1" data-name="Layer 1" xmlns="http://www.w3.org/2000/svg" width="32" height="32" viewBox="0 0 32 32">
  <g transform="scale(0.6666666667)">
    <path d="M0,0v48h48V0H0ZM41.760009765625,22.30999755859375c-1.34002685546875,4.78997802734375-6.22998046875,6.02001953125-10.58001708984375,5.280029296875,7.60003662109375,1.28997802734375,9.5400390625,5.5799560546875,5.3599853515625,9.8699951171875-7.92999267578125,8.13995361328125-11.39996337890625-2.0400390625-12.28997802734375-4.6500244140625-.15997314453125-.47998046875-.239990234375-.70001220703125-.239990234375-.510009765625,0-.19000244140625-.08001708984375.030029296875-.239990234375.510009765625-.8900146484375,2.6099853515625-4.36004638671875,12.78997802734375-12.2900390625,4.6500244140625-4.17999267578125-4.2900390625-2.239990234375-8.58001708984375,5.36004638671875-9.8699951171875-4.35003662109375.739990234375-9.24005126953125-.48004150390625-10.58001708984375-5.280029296875-.3900146484375-1.3800048828125-1.0400390625-9.8800048828125-1.0400390625-11.02996826171875,0-5.75,5.0400390625-3.94000244140625,8.1500244140625-1.61004638671875h-.02001953125c4.30999755859375,3.239990234375,8.95001220703125,9.79998779296875,10.6500244140625,13.32000732421875,1.70001220703125-3.52001953125,6.34002685546875-10.08001708984375,10.6500244140625-13.32000732421875,3.1099853515625-2.3299560546875,8.14996337890625-4.13995361328125,8.14996337890625,1.61004638671875,0,1.14996337890625-.65997314453125,9.64996337890625-1.03997802734375,11.02996826171875Z"/>
  </g>
</svg>