<?xml version="1.0" encoding="utf-8"?>
<!-- Generator: Adobe Illustrator 22.1.0, SVG Export Plug-In . SVG Version: 6.00 Build 0)  -->
<svg version="1.1" id="Layer_1" xmlns="http://www.w3.org/2000/svg" xmlns:xlink="http://www.w3.org/1999/xlink" x="0px" y="0px"
	 width="32px" height="32px" viewBox="0 0 32 32" enable-background="new 0 0 32 32" xml:space="preserve">
<g>
	<g>
		<path d="M16,17L0.7,11.6l15-3.3l15.5,3L16,17z M4.7,11.8l3.6,1.3l7.8,2.7l11.1-4.2L15.7,9.4L4.7,11.8z"/>
	</g>
	<g>
		<path d="M16,12.8c-0.8,0-1.4-0.4-1.4-1s0.6-1,1.4-1l0,0c0.3,0,0.6,0.1,0.9,0.2c0.4,0.2,0.6,0.5,0.6,0.8s-0.2,0.6-0.5,0.8
			C16.6,12.7,16.3,12.8,16,12.8L16,12.8z"/>
	</g>
	<g>
		<path d="M16.1,24.6l-0.4-0.4c-1.7-1.7-4.8-2.7-7.7-2.6H7.4V21c0-2.4,0-5-0.1-7.5h1.1c0,2.3,0.1,4.7,0.1,6.9c2.8,0,5.8,1,7.6,2.5
			c1.8-1.5,4.8-2.9,7.5-2.7c0-1,0-2.1,0-3.2c0-1.3,0-2.5,0-3.8h1.1c0,1.2,0,2.5,0,3.8s0,2.5,0,3.8v0.6l-0.6-0.1
			c-2.7-0.4-6,1.1-7.6,2.7L16.1,24.6z"/>
	</g>
	<g>
		<polygon points="26.9,16.8 26.1,16.8 26.1,13 16.8,12.2 16.9,11.4 26.9,12.3 		"/>
	</g>
	<g>
		<path d="M26.3,16.9l-1,5.7c0.2-0.2,0.7-0.5,1.4-0.5c1-0.1,1.7,0.4,1.9,0.5c-0.5-1.8-1.4-3.9-1.9-5.7"/>
	</g>
	<g>
		<circle cx="26.5" cy="16.9" r="0.6"/>
	</g>
</g>
</svg>
