<?xml version="1.0" encoding="UTF-8"?>
<svg id="Layer_1" data-name="Layer 1" xmlns="http://www.w3.org/2000/svg" width="32" height="32" viewBox="0 0 32 32">
  <defs>
    <style>
      .cls-1 {
        fill: currentColor;
      }
    </style>
  </defs>
  <g transform="scale(0.7272727273)">
    <path class="cls-1" d="M21.61,44c.13,0,.26,0,.38,0-.13,0-.26,0-.38,0Z"/>
    <path class="cls-1" d="M22,0C9.85,0,0,9.85,0,22s8.87,20.99,20.16,21.92c-.57-.05-1.14-.12-1.7-.21v-15.53h-5.57v-6.33h5.57v-4.82c.02-2.26.5-4.62,2.4-6.46,1.32-1.28,3.22-2.03,5.88-2.06,1.71.02,3.34.17,4.9.42v5.39h-2.76c-.98,0-1.79.22-2.43.7-.78.63-1.14,1.56-1.14,2.72v4.11h6.08l-.98,6.33h-5.1v15.57c-.94.14-1.89.22-2.87.24,11.95-.24,21.56-9.99,21.56-22S34.15,0,22,0Z"/>
    <path class="cls-1" d="M22,44s0,0,0,0c.13,0,.26,0,.39,0-.13,0-.26,0-.39,0Z"/>
    <path class="cls-1" d="M20.25,43.93c.12,0,.24.02.37.03-.12,0-.24-.02-.37-.03Z"/>
    <path class="cls-1" d="M21.13,43.98c.12,0,.24,0,.36.01-.12,0-.24,0-.36-.01Z"/>
    <path class="cls-1" d="M21.01,43.98c-.09,0-.18,0-.27-.01.09,0,.18,0,.27.01Z"/>
  </g>
</svg>