<?xml version="1.0" encoding="UTF-8"?>
<svg id="Layer_1" data-name="Layer 1" xmlns="http://www.w3.org/2000/svg" width="32" height="32" viewBox="0 0 32 32">
  <defs>
    <style>
      .cls-1 {
        fill: currentColor;
      }
    </style>
  </defs>
  <g transform="scale(0.7272727273)">
    <path class="cls-1" d="M32.86,20.47c0-1.22,0-2.38-.07-3.81v-.02c-.04-.98-.19-1.8-.45-2.43v-.03s-.02-.03-.02-.03c-.21-.56-.53-1.04-.97-1.49l-.02-.02-.02-.02c-.38-.4-.87-.71-1.48-.95h0c-.7-.28-1.51-.43-2.41-.45h-.04s-.04,0-.04,0c-.8-.05-2.22-.08-4.2-.08-.35,0-.72,0-1.1,0h-.02c-.38,0-.75,0-1.1,0-1.98,0-3.39.03-4.2.08h-.04s-.04,0-.04,0c-.9.02-1.71.18-2.41.45h0c-.61.24-1.1.55-1.48.95l-.02.02-.02.02c-.45.45-.77.93-.97,1.49v.03s-.02.03-.02.03c-.25.63-.4,1.45-.45,2.43v.02c-.07,1.43-.07,2.58-.07,3.81,0,.49,0,1,0,1.53,0,.54,0,1.04,0,1.53,0,1.22,0,2.38.07,3.81v.02c.04.98.19,1.8.45,2.43v.03s.02.03.02.03c.21.56.53,1.04.97,1.49l.02.02.02.02c.38.4.87.71,1.48.95h0c.7.28,1.51.43,2.41.45h.04s.04,0,.04,0c.8.05,2.22.08,4.2.08.35,0,.72,0,1.1,0h.02c.38,0,.75,0,1.1,0,1.98,0,3.39-.03,4.2-.08h.04s.04,0,.04,0c.9-.02,1.71-.18,2.41-.45h0c.61-.24,1.1-.55,1.48-.95l.02-.02.02-.02c.45-.45.77-.93.97-1.49v-.03s.02-.03.02-.03c.25-.63.4-1.45.45-2.43v-.02c.07-1.43.07-2.58.07-3.81,0-.49,0-1,0-1.53,0-.54,0-1.04,0-1.53ZM22,28.8c-3.76,0-6.8-3.05-6.8-6.8s3.05-6.8,6.8-6.8,6.8,3.05,6.8,6.8-3.05,6.8-6.8,6.8ZM29.07,16.52c-.88,0-1.59-.71-1.59-1.59s.71-1.59,1.59-1.59,1.59.71,1.59,1.59-.71,1.59-1.59,1.59Z"/>
    <path class="cls-1" d="M22,17.58c-2.44,0-4.42,1.98-4.42,4.42s1.98,4.42,4.42,4.42,4.42-1.98,4.42-4.42-1.98-4.42-4.42-4.42Z"/>
    <path class="cls-1" d="M22,0C9.85,0,0,9.85,0,22s9.85,22,22,22,22-9.85,22-22S34.15,0,22,0ZM35.25,22c-.02,1.89.03,3.38-.08,5.46-.05,1.17-.23,2.26-.62,3.22-.34.9-.86,1.68-1.53,2.35-.63.66-1.41,1.17-2.35,1.53-.97.38-2.04.58-3.22.61-1.1.07-3.03.09-5.46.08-2.43,0-4.37,0-5.46-.08-1.18-.03-2.25-.24-3.22-.61-.93-.36-1.72-.87-2.35-1.53-.67-.67-1.19-1.44-1.53-2.35-.38-.96-.57-2.04-.62-3.22-.08-1.59-.08-2.84-.08-4.19,0-.41,0-.83,0-1.27h0c.02-1.89-.03-3.39.08-5.46.05-1.17.23-2.26.62-3.22.34-.9.86-1.68,1.53-2.35.63-.66,1.41-1.17,2.35-1.53.97-.38,2.04-.58,3.22-.61,1.1-.07,3.03-.09,5.46-.08,2.43,0,4.37,0,5.46.08,1.18.03,2.25.24,3.22.61.93.36,1.72.87,2.35,1.53.67.67,1.19,1.44,1.53,2.35.38.96.57,2.04.62,3.22.08,1.59.08,2.84.08,4.19,0,.41,0,.83,0,1.27h0Z"/>
  </g>
</svg>