<?xml version="1.0" encoding="utf-8"?>
<!-- Generator: Adobe Illustrator 16.0.0, SVG Export Plug-In . SVG Version: 6.00 Build 0)  -->
<!DOCTYPE svg PUBLIC "-//W3C//DTD SVG 1.1//EN" "http://www.w3.org/Graphics/SVG/1.1/DTD/svg11.dtd">
<svg version="1.1" id="Layer_1" xmlns="http://www.w3.org/2000/svg" xmlns:xlink="http://www.w3.org/1999/xlink" x="0px" y="0px"
	 width="32" height="32" viewBox="0 0 32 32" enable-background="new 0 0 32 32" xml:space="preserve">
	<path fill-rule="evenodd" clip-rule="evenodd" fill="#333333" d="M24.2285,13.4845c-0.0205-0.7895-0.0505-1.582-0.1315-2.368
		c-0.076-0.7515-0.3405-1.4435-0.8475-2.028c-0.7105-0.8185-1.6475-1.1625-2.6845-1.226c-1.181-0.0715-2.364-0.089-3.5475-0.1035
		c-1.178-0.0145-2.3555-0.01-3.533,0.013c-0.7895,0.016-1.582,0.0505-2.368,0.1295c-0.7515,0.077-1.4435,0.342-2.028,0.8495
		c-0.8175,0.709-1.1625,1.646-1.225,2.6835c-0.0725,1.181-0.09,2.3655-0.1045,3.5485c-0.0145,1.177-0.01,2.355,0.0145,3.533
		c0.015,0.7895,0.049,1.582,0.1285,2.3675c0.077,0.7515,0.342,1.444,0.8495,2.0285c0.709,0.8175,1.646,1.1625,2.6835,1.226
		c1.181,0.071,2.3655,0.089,3.5485,0.103c1.177,0.0145,2.3555,0.015,3.532-0.015c0.869-0.023,1.7465-0.039,2.6025-0.1735
		c1.464-0.23,2.453-1.078,2.847-2.53c0.1275-0.47,0.1935-0.9675,0.2125-1.455c0.05-1.355,0.0595-2.7125,0.086-4.0695c-0.0105,0-0.021,0-0.031,0
		C24.233,15.161,24.249,14.3225,24.2285,13.4845z M15.9855,21.1715c-2.8505-0.0045-5.159-2.32-5.156-5.176
		c0.0015-2.862,2.319-5.171,5.185-5.167c2.8515,0.0055,5.159,2.32,5.158,5.1765C21.171,18.8655,18.852,21.176,15.9855,21.1715z
		 M21.3685,11.846c-0.6655,0.0005-1.2165-0.553-1.214-1.2215c0.0025-0.661,0.545-1.2035,1.205-1.207c0.677-0.003,1.2215,0.535,1.223,1.208
		C22.583,11.2985,22.0405,11.844,21.3685,11.846z"/>
	<path fill-rule="evenodd" clip-rule="evenodd" fill="#333333" d="M16.033,12.6525c-1.8735-0.0015-3.3805,1.4875-3.3805,3.3395
		c0,1.852,1.499,3.356,3.3445,3.356c1.8315,0,3.3495-1.4985,3.351-3.3105C19.349,14.172,17.8625,12.6535,16.033,12.6525z"/>
	<path fill-rule="evenodd" clip-rule="evenodd" fill="#333333" d="M0,0v32h32V0H0z M26.0625,19.3145
		c-0.0105,0.0625-0.0305,0.126-0.0305,0.1885c-0.023,0.778-0.059,1.554-0.2485,2.3135c-0.4305,1.7145-1.425,2.9605-3.0595,3.668
		c-0.886,0.384-1.828,0.494-2.7825,0.533c-0.2095,0.0095-0.418,0.03-0.627,0.045c-2.2095,0-4.4185,0-6.629,0
		c-0.0625-0.0105-0.125-0.0295-0.1885-0.031c-0.777-0.023-1.554-0.059-2.3135-0.2495c-1.7135-0.429-2.9605-1.423-3.667-3.0575
		c-0.3835-0.886-0.494-1.828-0.533-2.7815c-0.009-0.2105-0.0295-0.419-0.0455-0.628c0-2.2095,0-4.4185,0-6.629
		c0.0115-0.0625,0.0305-0.125,0.032-0.1885c0.023-0.778,0.058-1.554,0.2495-2.3135c0.4295-1.7135,1.424-2.9605,3.058-3.667
		c0.886-0.3835,1.8275-0.495,2.7825-0.533c0.209-0.009,0.417-0.0305,0.626-0.0455c2.2105,0,4.4195,0,6.629,0
		c0.0635,0.0105,0.125,0.0305,0.1885,0.032c0.779,0.023,1.554,0.058,2.3135,0.2485c1.7135,0.4305,2.9605,1.424,3.667,3.059
		c0.385,0.886,0.495,1.8275,0.534,2.7815c0.0095,0.21,0.031,0.418,0.045,0.627C26.0625,14.896,26.0625,17.105,26.0625,19.3145z"/>
</svg>
