<?xml version="1.0" encoding="UTF-8"?>
<svg id="Layer_1" data-name="Layer 1" xmlns="http://www.w3.org/2000/svg" width="32" height="32" viewBox="0 0 32 32">
  <defs>
    <style>
      .cls-1 {
        fill: currentColor;
      }
    </style>
  </defs>
  <g transform="scale(0.7272727273)">
    <path class="cls-1" d="M22,0C9.85,0,0,9.85,0,22s9.85,22,22,22,22-9.85,22-22S34.15,0,22,0ZM15.39,33.92h-4.96v-15.93h4.96v15.93ZM12.91,15.8c-1.58,0-2.86-1.28-2.86-2.86s1.28-2.86,2.86-2.86,2.86,1.28,2.86,2.86-1.28,2.86-2.86,2.86ZM33.95,33.92h-4.96v-7.88c.03-.48.03-.93,0-1.33-.13-1.94-.94-2.98-2.64-2.98-.45.02-.87.12-1.24.29-1.06.51-1.74,1.71-1.79,4.02v7.88h-4.96v-15.93h4.77l.05,2.02c1.42-1.72,3.26-2.75,5.81-2.59,3.61.59,4.86,3.06,4.96,6.45v10.04Z"/>
  </g>
</svg>