<?xml version="1.0" encoding="utf-8"?>
<svg version="1.1" id="Layer_1" xmlns="http://www.w3.org/2000/svg" xmlns:xlink="http://www.w3.org/1999/xlink" x="0px" y="0px"
	viewBox="0 0 32 32" style="enable-background:new 0 0 32 32;" xml:space="preserve">
<path fill-rule="evenodd" clip-rule="evenodd" d="M5.8,1 H28.45 A1.3,1.3 0 0 1 29.75,2.3 V8.2 A1.3,1.3 0 0 1 28.45,9.5 H5.8 A1.3,1.3 0 0 1 4.5,8.2 V7.37 A3.2,3.2 0 1 1 4.5,3.13 V2.3 A1.3,1.3 0 0 1 5.8,1Z M5.3,11.5 H28.45 A1.3,1.3 0 0 1 29.75,12.8 V18.7 A1.3,1.3 0 0 1 28.45,20 H5.3 A1.3,1.3 0 0 1 4,18.7 V18.48 A3.7,3.7 0 1 1 4,13.02 V12.8 A1.3,1.3 0 0 1 5.3,11.5Z M5.55,22 H28.45 A1.3,1.3 0 0 1 29.75,23.3 V29.2 A1.3,1.3 0 0 1 28.45,30.5 H5.55 A1.3,1.3 0 0 1 4.25,29.2 V28.71 A3.4,3.4 0 1 1 4.25,23.79 V23.3 A1.3,1.3 0 0 1 5.55,22Z M10.88,1.75 H27.92 A0.88,0.88 0 0 1 28.8,2.63 V7.87 A0.88,0.88 0 0 1 27.92,8.75 H10.88 A0.88,0.88 0 0 1 10,7.87 V2.63 A0.88,0.88 0 0 1 10.88,1.75Z M10.88,12.25 H27.92 A0.88,0.88 0 0 1 28.8,13.13 V18.37 A0.88,0.88 0 0 1 27.92,19.25 H10.88 A0.88,0.88 0 0 1 10,18.37 V13.13 A0.88,0.88 0 0 1 10.88,12.25Z M10.88,22.75 H27.92 A0.88,0.88 0 0 1 28.8,23.63 V28.87 A0.88,0.88 0 0 1 27.92,29.75 H10.88 A0.88,0.88 0 0 1 10,28.87 V23.63 A0.88,0.88 0 0 1 10.88,22.75Z"/>
</svg>
