<?xml version="1.0" encoding="UTF-8"?>
<svg version="1.1" xmlns="http://www.w3.org/2000/svg" width="1024" height="1024">
<path d="M0 0 C1.45442593 -0.00344053 2.90884924 -0.00819202 4.36326715 -0.01412097 C8.34103063 -0.02656662 12.31857812 -0.02050972 16.29634231 -0.01128729 C20.63092995 -0.00455518 24.96548143 -0.01525471 29.30006129 -0.02368313 C36.89059416 -0.03603913 44.4810652 -0.03726708 52.07160473 -0.0311327 C63.35870169 -0.02203527 74.64574155 -0.03007861 85.93283413 -0.04142394 C106.0905854 -0.06108594 126.24831096 -0.06343936 146.40606954 -0.05822874 C164.04205944 -0.05367215 181.67803916 -0.05427006 199.31402874 -0.06006908 C201.67936868 -0.06082595 204.04470862 -0.06158193 206.41004856 -0.06233703 C209.97429835 -0.06348221 213.53854814 -0.06463209 217.10279792 -0.06579627 C250.23528332 -0.07650002 283.36776533 -0.08122749 316.50025177 -0.07332611 C317.74905917 -0.07302894 318.99786657 -0.07273176 320.28451663 -0.07242559 C330.42591579 -0.06997661 340.5673149 -0.06736505 350.70871402 -0.06474145 C390.29215389 -0.05463269 429.87555137 -0.06300688 469.45898533 -0.086236 C513.92326149 -0.11228713 558.38751213 -0.12516282 602.85179621 -0.11804825 C607.58906463 -0.11733217 612.32633306 -0.11665778 617.06360149 -0.1160078 C618.81328116 -0.11575309 618.81328116 -0.11575309 620.5983079 -0.11549323 C638.22983932 -0.11318728 655.86134708 -0.12118104 673.49287319 -0.13429928 C693.5308 -0.14918126 713.56867124 -0.15009262 733.60659682 -0.13222837 C744.82768366 -0.12263721 756.04864101 -0.12415757 767.26971931 -0.14146306 C774.75658367 -0.15190736 782.24334881 -0.14791625 789.73020332 -0.13198302 C794.00127731 -0.12330322 798.27209649 -0.12104278 802.54315793 -0.13625234 C806.42559456 -0.14994819 810.30755629 -0.1453686 814.18996468 -0.12596715 C815.58857427 -0.12221934 816.98722172 -0.12522765 818.38579727 -0.13568023 C831.23228229 -0.22510526 831.23228229 -0.22510526 836.22045994 4.38031673 C836.81213963 4.92172298 837.40381931 5.46312923 838.01342869 6.02094173 C844.47875734 13.48232942 845.82135329 20.0165481 845.56030369 29.88422298 C844.90497776 36.62579429 842.22278941 42.20467618 839.41967869 48.29047298 C825.12751972 79.45183368 818.30640571 113.17302502 817.22045994 147.38031673 C817.15858494 149.20562923 817.15858494 149.20562923 817.09545994 151.06781673 C816.55441822 183.53031974 821.95022807 215.5988998 833.03295994 246.06781673 C836.7197269 256.26655765 838.9767609 265.79437765 835.22045994 276.38031673 C832.00852319 282.533304 828.22789593 287.68382262 821.68872166 290.45209408 C817.16005531 291.66411642 812.8973804 291.73508553 808.22827244 291.79437923 C806.80936207 291.82342846 806.80936207 291.82342846 805.36178684 291.85306454 C802.35643472 291.91258722 799.35104373 291.95913619 796.34545994 292.00531673 C794.3011729 292.04352166 792.25690152 292.08257484 790.21264744 292.12250423 C785.21537964 292.21826627 780.21803651 292.30239787 775.22045994 292.38031673 C775.63763279 292.99157406 776.05480564 293.60283138 776.48462009 294.23261166 C777.02908787 295.03803402 777.57355564 295.84345638 778.13452244 296.67328548 C778.67544529 297.47016781 779.21636814 298.26705013 779.77368259 299.08808041 C783.8605431 305.5631957 784.05954487 312.952207 783.22045994 320.38031673 C781.39597792 327.44912382 778.41353374 334.00428566 775.36230564 340.60663509 C748.25571868 399.55125889 748.85803923 471.87093245 770.22045994 532.38031673 C770.66131931 533.5262933 771.10217869 534.67226986 771.55639744 535.85297298 C775.11213011 545.22144596 776.2576258 555.99013071 772.22045994 565.38031673 C773.39028416 565.35936947 774.56010838 565.3384222 775.76538181 565.31684017 C780.13374533 565.24406817 784.50205599 565.19838251 788.87085056 565.16059017 C790.7563591 565.14055907 792.64180617 565.11332601 794.52710056 565.07855892 C797.24795856 565.02966401 799.9679905 565.00726292 802.68920994 564.98969173 C803.52287083 564.96904659 804.35653172 564.94840145 805.21545506 564.9271307 C811.91302768 564.92460204 817.05688748 566.71396588 822.20874119 571.05609798 C827.9859264 578.19663074 830.39155054 585.17808674 830.22045994 594.38031673 C829.24439899 601.94998088 826.34318259 608.53641259 823.05273533 615.34052181 C807.72139106 647.28448125 801.99614337 683.33512495 801.97045994 718.50531673 C801.96978519 719.34080044 801.96911045 720.17628414 801.96841526 721.03708553 C802.00805638 752.11831774 807.15621561 782.29401015 817.71264744 811.57172298 C821.62381761 822.45134856 823.15724248 831.57846775 818.22045994 842.38031673 C815.07667852 847.93433058 811.17210453 851.9363511 805.22045994 854.38031673 C802.53966621 854.63107707 802.53966621 854.63107707 799.40496695 854.63216573 C798.20696182 854.63742899 797.00895669 854.64269225 795.77464837 854.64811501 C794.44100589 854.64385017 793.10736398 854.6394025 791.77372265 854.63479233 C790.35437962 854.63718112 788.93503784 854.64044562 787.51569861 854.64450893 C783.59336586 854.65316782 779.67112822 854.64928643 775.74879389 854.6434532 C771.48978417 854.63929811 767.2307923 854.64667622 762.97178686 854.65260571 C755.49975366 854.66138943 748.02774787 854.66267214 740.55571079 854.65910244 C729.44424361 854.653808 718.33280307 854.65987814 707.22133879 854.66818537 C686.22181218 854.6834526 665.22229759 854.68512753 644.22276659 854.68266235 C628.00539644 854.68083157 611.78803025 854.68258476 595.57066059 854.68688679 C593.24286618 854.68748918 590.91507176 854.68809038 588.58727735 854.68869039 C585.07969277 854.68959762 581.5721082 854.69050629 578.06452363 854.69142274 C545.43612107 854.69985687 512.80772001 854.70418493 480.17931652 854.70001602 C478.94839391 854.69985965 477.71747129 854.69970327 476.449248 854.69954216 C470.21011377 854.69873634 463.97097955 854.69789057 457.73184533 854.69702885 C456.49268565 854.69685777 455.25352597 854.69668668 453.976816 854.69651041 C451.47092929 854.69616375 448.96504257 854.69581522 446.45915586 854.69546482 C407.48130686 854.69010949 368.50348049 854.69803081 329.52563572 854.71649837 C285.75389961 854.73721287 241.98217752 854.74794191 198.21043622 854.74392289 C193.54309646 854.74352753 188.8757567 854.74316599 184.20841694 854.74282551 C183.05916566 854.74273478 181.90991439 854.74264404 180.72583731 854.74255056 C163.37102815 854.74138423 146.01623313 854.74803583 128.6614275 854.75863743 C108.92032814 854.77068431 89.17925995 854.77225452 69.43816014 854.75984726 C58.38989819 854.75321432 47.34171074 854.7548597 36.29345474 854.76843578 C28.91126393 854.77667544 21.52912898 854.77398896 14.14694272 854.76246051 C9.94208511 854.75619918 5.73737296 854.75461593 1.53252371 854.76632384 C-2.2992667 854.77689463 -6.13078901 854.77344739 -9.96256525 854.75921931 C-11.97650604 854.75524024 -13.99045993 854.76584588 -16.00437266 854.77719638 C-40.53516526 854.63169466 -60.24394982 845.16231136 -77.77954006 828.38031673 C-78.52848537 827.70613705 -79.27743069 827.03195736 -80.04907131 826.33734798 C-102.90322811 805.00413332 -114.39976087 770.10344855 -115.97541714 739.58663082 C-116.05690413 735.69948176 -116.0848473 731.81495055 -116.08032131 727.92719173 C-116.08422844 726.49198952 -116.08856706 725.05678842 -116.09330654 723.62158871 C-116.10069343 720.6366667 -116.10053364 717.65186311 -116.09521389 714.66693783 C-116.09058485 711.64953351 -116.09750206 708.63253241 -116.1157217 705.61518002 C-116.36511674 663.95600407 -109.34402734 624.37699433 -79.49438381 593.11469173 C-74.55748203 588.14227267 -69.42335761 583.53426745 -63.77954006 579.38031673 C-64.94227444 579.30555111 -66.10500881 579.23078548 -67.30297756 579.15375423 C-91.70748909 577.27945073 -110.46032464 568.51556477 -127.77954006 551.38031673 C-128.43309475 550.78734798 -129.08664944 550.19437923 -129.76000881 549.58344173 C-152.28303803 528.76123623 -163.57021608 492.61266841 -164.94744778 462.73810482 C-165.18870003 453.60708547 -165.15842052 444.47782455 -165.10211086 435.34455013 C-165.08866253 432.38771102 -165.0938603 429.43102527 -165.09923935 426.47416973 C-165.10262144 423.5706094 -165.09587208 420.66713792 -165.08611012 417.76359463 C-165.08054183 415.75667207 -165.08167434 413.74973432 -165.08308315 411.74280453 C-164.98798075 399.21541136 -163.77049043 386.73079501 -160.65454006 374.56781673 C-160.33694729 373.3241534 -160.33694729 373.3241534 -160.0129385 372.05536556 C-155.02623829 353.51655356 -146.22053088 336.03990411 -133.77954006 321.38031673 C-133.17754787 320.64555111 -132.57555569 319.91078548 -131.95532131 319.15375423 C-117.44566528 302.02470796 -96.16714306 289.85193517 -73.64282131 287.86859798 C-65.28330776 287.19912279 -56.91040786 287.02746679 -48.52954006 286.81781673 C-46.8980214 286.77450639 -45.26651087 286.7308887 -43.63500881 286.68695736 C-39.68327049 286.58120698 -35.7314461 286.47959321 -31.77954006 286.38031673 C-32.89425686 285.84914242 -34.00897366 285.3179681 -35.15746975 284.77069759 C-55.8830259 274.84627994 -72.29309061 260.39911531 -83.77954006 240.38031673 C-84.13596584 239.76108334 -84.49239162 239.14184994 -84.85961819 238.50385189 C-98.06762854 215.02497161 -102.8910803 189.27313081 -102.98266506 162.57953548 C-102.98836514 161.26733532 -102.99406521 159.95513515 -102.99993801 158.60317135 C-103.01037973 155.83218667 -103.01626505 153.06123036 -103.01977444 150.29022884 C-103.02413402 147.49484684 -103.03794049 144.69977785 -103.06079006 141.90448666 C-103.41086064 98.17899053 -95.51588302 57.6014228 -64.09204006 25.19281673 C-46.5539941 7.82255814 -24.52061122 -0.12517852 0 0 Z M347.02514744 65.88812923 C339.95246391 75.11219939 335.64191942 85.21475341 332.47045994 96.31781673 C332.27170261 97.00819027 332.07294529 97.6985638 331.86816502 98.40985775 C328.18645059 112.13146381 327.90230577 125.69393073 327.95971775 139.80292416 C327.97045114 142.94024584 327.95976276 146.0769966 327.94702244 149.21430111 C327.93990946 159.47371221 328.14906294 169.30050438 330.22045994 179.38031673 C330.43186619 180.62426205 330.64327244 181.86820736 330.86108494 183.14984798 C334.31452353 200.3949035 340.91517269 219.48469886 355.74389744 230.20453548 C362.64734275 234.48550082 368.4434452 236.63120816 376.6585989 236.62641239 C377.38983428 236.62872008 378.12106965 236.63102777 378.87446368 236.63340539 C381.32589645 236.63870118 383.77706676 236.62972485 386.22848606 236.62082577 C388.00320437 236.62169792 389.77792244 236.62344908 391.55263913 236.6260041 C396.43039113 236.63047971 401.30805543 236.62247097 406.18579626 236.61244798 C411.44545362 236.60381889 416.70510596 236.60673326 421.96476841 236.60825253 C431.07782127 236.60930172 440.19084552 236.60302151 449.30389118 236.59177685 C462.47985639 236.57552948 475.65580774 236.57031462 488.83178188 236.56780086 C510.20841939 236.56342256 531.58504165 236.55010979 552.96167088 236.53119564 C573.72827166 236.51284034 594.4948683 236.49868212 615.26147556 236.49018002 C616.54132032 236.48965457 617.82116509 236.48912912 619.13979302 236.48858775 C625.56033576 236.4859777 631.98087852 236.48345028 638.40142131 236.48096395 C691.67444473 236.46022724 744.94745159 236.42499803 798.22045994 236.38031673 C798.1057318 235.72310005 797.99100367 235.06588337 797.87279892 234.38875103 C797.34722433 231.37657429 796.82228959 228.36428637 796.29736423 225.35199642 C796.11689297 224.31823879 795.9364217 223.28448116 795.75048161 222.21939754 C794.44073888 214.69965648 793.18813572 207.17551551 792.03295994 199.63031673 C791.86860447 198.58617611 791.704249 197.54203548 791.53491306 196.46625423 C784.8370715 152.97095921 786.55633077 100.20639181 802.52124119 58.68500423 C803.2935559 56.1393859 803.26953189 54.025816 803.22045994 51.38031673 C748.10166039 51.28877399 692.98286853 51.21828449 637.86400793 51.17605542 C631.35766238 51.17105255 624.85131698 51.16587527 618.34497166 51.16059017 C617.04966795 51.15954093 615.75436424 51.15849169 614.41980891 51.15741065 C593.44266294 51.14000241 572.46556079 51.10846238 551.48844083 51.07170555 C529.96617909 51.03430785 508.44394032 51.01208335 486.92164743 51.00396276 C473.63977872 50.99847257 460.35803386 50.98112822 447.07620327 50.94865087 C437.97004984 50.92751747 428.8639605 50.92111405 419.75778432 50.92631122 C414.50291905 50.9288748 409.24827032 50.92492727 403.99344349 50.90349483 C399.180472 50.88400797 394.36786237 50.88306071 389.55487411 50.89672115 C387.81580404 50.89840912 386.07671125 50.8933531 384.33768578 50.880784 C368.76962057 50.77482654 357.64196002 53.76002661 347.02514744 65.88812923 Z M283.20092869 355.92719173 C261.20569529 383.17178064 261.83374286 425.80487934 264.72045994 459.08344173 C266.98304331 480.19175172 272.6999226 504.15249582 289.66967869 518.44281673 C297.03468466 523.85660366 303.66343702 526.75755712 312.90469456 526.74946022 C314.00500915 526.75465252 314.00500915 526.75465252 315.12755233 526.75994971 C317.57490929 526.76786309 320.02166893 526.75445517 322.46899509 526.74108028 C324.2454403 526.74238914 326.02188494 526.74501704 327.79832649 526.74884778 C332.6716013 526.75554889 337.54467794 526.74356517 342.4179275 526.7285136 C347.67618627 526.71555214 352.93443395 526.71994278 358.1927042 526.72222042 C367.30028014 526.72379308 376.40779158 526.71438458 385.5153513 526.6975069 C398.68332655 526.67312057 411.85127062 526.665312 425.01926601 526.66154293 C446.38371161 526.65497788 467.74812284 526.63501524 489.11254978 526.60663509 C509.86547772 526.57909593 530.61839632 526.55786164 551.37133884 526.54511166 C553.29031782 526.5439294 553.29031782 526.5439294 555.24806404 526.54272326 C561.66606548 526.53880813 568.08406698 526.53501701 574.50206852 526.53128755 C627.74155608 526.50018997 680.98100633 526.44735268 734.22045994 526.38031673 C733.90095131 524.45810438 733.58120308 522.53593185 733.26135349 520.61377621 C733.08331936 519.54336212 732.90528522 518.47294804 732.72185612 517.37009716 C732.16889503 514.0728398 731.59045182 510.78073847 731.00170994 507.48969173 C725.18952231 474.41594943 722.32418631 440.18957883 726.90844822 406.73822689 C727.24993091 404.15760105 727.5321653 401.57397969 727.81030369 398.98578548 C728.99750804 388.40639479 730.77685745 378.07102626 733.15795994 367.69281673 C733.51905857 366.11766293 733.51905857 366.11766293 733.88745213 364.51068783 C735.41063492 358.13172773 737.28197569 351.956437 739.45312595 345.76776791 C740.32245564 343.48092701 740.32245564 343.48092701 740.22045994 341.38031673 C685.21202494 341.31166682 630.20359427 341.25879618 575.19512487 341.22712075 C568.70251188 341.22336858 562.20989897 341.21948561 555.71728611 341.21552181 C554.42471071 341.21473488 553.13213531 341.21394795 551.80039095 341.21313717 C530.864612 341.2000793 509.92885774 341.17642334 488.99309344 341.14885835 C467.51490583 341.12081479 446.03673115 341.10414269 424.55852598 341.09805125 C411.30278099 341.09393264 398.04710576 341.08091904 384.79138225 341.05656733 C375.70439797 341.04072312 366.61744983 341.0359134 357.53045274 341.0398126 C352.28587481 341.04173618 347.0414189 341.03876423 341.7968626 341.02270031 C336.99447932 341.00809811 332.1923001 341.00736654 327.38990741 341.01762005 C325.65355009 341.01888727 323.91718002 341.01508448 322.18084777 341.00566719 C306.21567071 340.92411967 294.56511271 344.04129866 283.20092869 355.92719173 Z M330.13842869 636.28656673 C316.8210355 656.64562422 313.83735215 680.57428142 314.01464939 704.35053158 C314.03293948 706.87749031 314.03515779 709.4040797 314.03491306 711.93109798 C314.09327251 739.44120565 316.22555201 769.69392477 336.15795994 790.75531673 C344.05899708 798.19876485 351.74536314 801.63286288 362.76602936 801.62641239 C363.49673021 801.62872008 364.22743105 801.63102777 364.98027435 801.63340539 C367.42386788 801.63869077 369.86719679 801.62973355 372.31077671 801.62082577 C374.08223328 801.62169813 375.8536896 801.62344969 377.62514454 801.6260041 C382.48923577 801.63047552 387.35323889 801.62247672 392.21731889 801.61244798 C397.46400694 801.60381286 402.71069 801.60673368 407.95738316 801.60825253 C417.04640919 801.60930134 426.13540651 801.60302512 435.22442532 801.59177685 C448.36562544 801.57552431 461.50681167 801.57031409 474.64802075 801.56780086 C495.96864312 801.56342338 517.28925018 801.55011281 538.60986423 801.53119564 C559.32112648 801.51283824 580.03238456 801.49868104 600.7436533 801.49018002 C602.02024834 801.48965457 603.29684338 801.48912912 604.61212312 801.48858775 C611.01641115 801.48597768 617.42069921 801.48345026 623.82498729 801.48096395 C676.95682208 801.46022978 730.08864026 801.42500277 783.22045994 801.38031673 C782.90863952 799.47204511 782.59506638 797.56405983 782.28076267 795.65619564 C782.10633137 794.59365566 781.93190006 793.53111568 781.75218296 792.43637753 C781.19385961 789.22743222 780.5123618 786.06914068 779.77417088 782.898139 C772.26523954 750.14173229 771.49751742 714.02942229 775.91723728 680.73187923 C776.23549403 678.26372387 776.49023069 675.79378524 776.73999119 673.31781673 C778.16384971 660.30415972 781.1442812 647.81053449 784.43969822 635.16791439 C784.70145847 634.16336712 784.70145847 634.16336712 784.96850681 633.13852596 C785.44813544 631.30784574 785.93394515 629.47878812 786.42016697 627.64984798 C787.17444044 624.56832561 787.71660473 621.51067737 788.22045994 618.38031673 C733.16978433 618.22004876 678.11913232 618.09672573 623.06826925 618.02285943 C616.56707852 618.01410462 610.06588826 618.00504435 603.56469822 617.99579525 C601.62331652 617.99304099 601.62331652 617.99304099 599.64271499 617.99023109 C578.69408917 617.95978282 557.74559799 617.90459676 536.79705201 617.84024716 C515.29737688 617.77475606 493.7977722 617.7358988 472.29800141 617.72169727 C459.03445806 617.71209874 445.77129532 617.68179721 432.50786914 617.62490147 C423.40913387 617.58786219 414.31059499 617.57672459 405.21178983 617.58580709 C399.96435401 617.59028482 394.71758266 617.58348495 389.47026539 617.54587841 C384.65931524 617.51165215 379.84947229 617.51019619 375.03846969 617.53402447 C373.30469687 617.53696655 371.57085313 617.52822183 369.83721851 617.50613446 C353.01611449 617.30441147 340.28220313 622.12715176 330.13842869 636.28656673 Z " fill="#000000" transform="translate(171.77954006195068,79.61968326568604)"/>
<path d="M0 0 C1.1129774 -0.0051923 1.1129774 -0.0051923 2.24843919 -0.01048949 C4.72451065 -0.01840427 7.19999198 -0.00499373 9.67603302 0.00837994 C11.47310221 0.00707111 13.27017084 0.00444326 15.06723642 0.00061244 C19.99751823 -0.00608924 24.92760418 0.00589584 29.85786104 0.02094662 C35.17747008 0.03390726 40.49706815 0.0295175 45.81668854 0.0272398 C55.03066879 0.02566709 64.24458528 0.03507614 73.4585495 0.05195332 C86.78037016 0.07633895 100.10216 0.08414815 113.42400056 0.08791729 C135.03801746 0.09448245 156.65200039 0.11444539 178.26599884 0.14282513 C199.26143982 0.170364 220.25687157 0.19159843 241.25232697 0.20434856 C242.54658126 0.20513673 243.84083555 0.20592491 245.17430967 0.20673696 C251.66723146 0.21065208 258.16015332 0.21444321 264.65307522 0.21817267 C318.51463314 0.24927059 372.37615417 0.30210818 426.23767853 0.36914349 C425.17198198 8.03522605 425.17198198 8.03522605 424.18689728 11.25195599 C423.98507843 11.93201702 423.78325958 12.61207806 423.57532501 13.312747 C423.2535025 14.39253826 423.2535025 14.39253826 422.92517853 15.49414349 C420.02505158 25.68913257 417.91308554 35.90559862 416.23767853 46.36914349 C415.96044952 48.05862103 415.96044952 48.05862103 415.67761993 49.78222942 C410.40630842 83.07049467 409.69080604 118.07650694 415.23767853 151.36914349 C415.40348419 152.39523724 415.56928986 153.42133099 415.74011993 154.47851849 C416.67102362 160.18876433 417.65964937 165.88572103 418.71907806 171.57348919 C419.25188154 174.44570862 419.77612178 177.3193795 420.29798126 180.19360638 C420.47490005 181.16769955 420.65181885 182.14179272 420.83409882 183.14540386 C420.96728012 183.87923794 421.10046143 184.61307201 421.23767853 185.36914349 C366.75584964 185.46068736 312.27402853 185.53117631 257.79213787 185.5734048 C251.36089869 185.57840767 244.92965967 185.58358495 238.49842072 185.58887005 C236.57789477 185.59044391 236.57789477 185.59044391 234.61857031 185.59204957 C213.88391881 185.60945754 193.14931165 185.64099742 172.41468646 185.67775467 C151.14102748 185.71515313 129.86739174 185.73737703 108.59370124 185.74549747 C95.46537922 185.75098749 82.33718252 185.768331 69.20889907 185.80080935 C60.20786939 185.82194368 51.20690456 185.82834596 42.20585187 185.823149 C37.0117436 185.82058556 31.8178544 185.8245313 26.62378502 185.84596539 C21.86632488 185.86545429 17.10923081 185.8663982 12.3517537 185.85273907 C10.63287183 185.8510513 8.91396697 185.8561056 7.19513024 185.86867622 C-6.42955428 185.96250626 -16.54929736 183.97271047 -26.76232147 174.36914349 C-44.00659805 156.3971268 -48.8547641 128.75053703 -48.96544647 104.70898724 C-48.97114655 103.72024105 -48.97684662 102.73149487 -48.98271942 101.71278667 C-48.99210619 99.63120859 -48.998678 97.54961607 -49.00255585 95.46802044 C-49.01222126 92.33908368 -49.04328977 89.21081626 -49.07482147 86.08203411 C-49.13752714 74.14030571 -48.38370303 63.03811279 -45.76232147 51.36914349 C-45.61718109 50.7044656 -45.47204071 50.03978771 -45.32250214 49.35496807 C-41.42896043 31.58480154 -33.61809288 15.89806286 -18.70372772 5.09570599 C-12.56080649 1.48990096 -7.18598923 -0.00622343 0 0 Z " fill="#FEFEFE" transform="translate(548.762321472168,130.63085651397705)"/>
<path d="M0 0 C0.73683503 -0.00115384 1.47367005 -0.00230769 2.23283342 -0.0034965 C4.70926707 -0.00614968 7.18563611 -0.00165166 9.66206646 0.00279331 C11.45242045 0.00235735 13.24277438 0.00148197 15.03312796 0.00020415 C19.9587208 -0.00203581 24.88429197 0.00197368 29.80988204 0.00698221 C35.11931888 0.01129365 40.42875446 0.00983979 45.73819256 0.00907993 C54.93910608 0.00855514 64.14001252 0.0116973 73.34092426 0.01731777 C86.64396059 0.02543879 99.94699349 0.02804861 113.25003203 0.02930576 C134.83242171 0.03149533 156.41480761 0.03815285 177.99719524 0.04760838 C198.96464297 0.05678494 219.93208967 0.06386458 240.89953899 0.06811619 C242.19159446 0.06837891 243.48364993 0.06864164 244.81485859 0.06891232 C251.29660827 0.07021734 257.77835795 0.07148105 264.26010764 0.07272422 C318.04755416 0.08309388 371.83499659 0.10070962 425.62243938 0.12304783 C425.4156657 0.88037677 425.20889202 1.63770571 424.99585247 2.41798401 C424.7250285 3.41035096 424.45420452 4.40271791 424.17517376 5.42515659 C423.77220074 6.9014625 423.77220074 6.9014625 423.36108685 8.40759277 C419.34043576 23.18852401 415.72902815 37.94132673 413.62243938 53.12304783 C413.5247929 53.8133408 413.42714642 54.50363377 413.32654095 55.2148447 C411.22457185 70.28957259 410.41140536 85.28943695 410.43493938 100.49804783 C410.43587597 101.28673252 410.43681255 102.07541721 410.43777752 102.88800144 C410.49555809 125.46910223 412.99633563 147.18543324 416.96814251 169.38769627 C417.54977314 172.70819951 418.11025197 176.03115816 418.66333294 179.3565073 C418.93291443 180.97657373 418.93291443 180.97657373 419.20794201 182.62936878 C419.41311821 183.86373991 419.41311821 183.86373991 419.62243938 185.12304783 C365.1406105 185.2145917 310.65878938 185.28508065 256.17689873 185.32730915 C249.74565955 185.33231201 243.31442052 185.33748929 236.88318157 185.34277439 C234.96265562 185.34434825 234.96265562 185.34434825 233.00333117 185.34595391 C212.26867967 185.36336188 191.53407251 185.39490176 170.79944731 185.43165901 C149.52578834 185.46905747 128.2521526 185.49128137 106.9784621 185.49940181 C93.85014008 185.50489183 80.72194337 185.52223534 67.59365992 185.5547137 C58.59263025 185.57584802 49.59166541 185.5822503 40.59061272 185.57705334 C35.39650445 185.5744899 30.20261525 185.57843565 25.00854588 185.59986973 C20.25108574 185.61935863 15.49399167 185.62030254 10.73651455 185.60664341 C9.01763269 185.60495564 7.29872783 185.61000994 5.5798911 185.62258056 C-7.24162105 185.71087934 -16.88413281 184.11461042 -26.92834187 175.56836033 C-47.38002625 155.14929426 -50.59812496 123.5904801 -50.69204426 96.16189671 C-50.66750844 68.6240305 -50.19390132 35.63538166 -30.37756062 14.12304783 C-29.84646687 13.5017197 -29.31537312 12.88039158 -28.76818562 12.24023533 C-20.8659168 3.54773964 -11.52531845 -0.00333198 0 0 Z " fill="#FEFEFE" transform="translate(486.37756061553955,420.8769521713257)"/>
<path d="M0 0 C1.80225366 -0.00305829 3.60450425 -0.00919793 5.4067384 -0.01812416 C10.32379628 -0.03367718 15.23977421 -0.00591639 20.15669465 0.02932227 C25.47210617 0.05968785 30.78746188 0.0493123 36.10293579 0.04400635 C45.30055932 0.04034445 54.49783394 0.06221681 63.69536972 0.10167122 C76.9932304 0.15867739 90.29092321 0.17680328 103.58889283 0.18558716 C125.16638255 0.20088927 146.74368652 0.24742417 168.32107544 0.31370544 C189.2754931 0.37800595 210.22986022 0.42753176 231.18435669 0.45726013 C233.12337362 0.46001873 233.12337362 0.46001873 235.1015626 0.46283305 C241.58686033 0.47196864 248.07215841 0.48081452 254.55745673 0.48951638 C308.31847229 0.56202648 362.07928627 0.68526874 415.84011841 0.84178162 C415.52414179 2.27507719 415.20746809 3.7082191 414.89050293 5.14129639 C414.71423056 5.93939382 414.53795818 6.73749125 414.35634422 7.55977345 C413.71540199 10.39309825 412.99413212 13.20076213 412.25418091 16.00975037 C404.78932013 45.06864436 401.60891567 74.07860622 401.59011841 104.09178162 C401.58944366 105.06466125 401.58876892 106.03754089 401.58807373 107.03990173 C401.6133624 130.06251547 404.13842251 151.79451885 409.31521606 174.25657654 C409.96059082 177.43512225 410.39068679 180.63027873 410.84011841 183.84178162 C356.50270544 183.9333356 302.16530027 184.00381958 247.82782535 184.04604293 C241.41289622 184.05104577 234.99796724 184.05622305 228.58303833 184.06150818 C227.30594062 184.06255742 226.02884291 184.06360666 224.71304528 184.0646877 C204.03403474 184.08209327 183.35506869 184.11363182 162.67608454 184.1503928 C141.45779136 184.18779794 120.23952147 184.21001658 99.02119666 184.2181356 C85.92819326 184.22362423 72.83531556 184.24096021 59.74235085 184.27344748 C50.76420757 184.29459005 41.78612929 184.30098222 32.80796292 184.29578713 C27.62790735 184.29322498 22.44807148 184.29715478 17.26805496 184.31860352 C12.52226162 184.33811054 7.77683513 184.33902462 3.03102467 184.3253772 C1.31750854 184.32369119 -0.39603076 184.32873009 -2.10950152 184.34131435 C-15.46153241 184.43364458 -25.92034036 182.98758468 -35.85568237 173.45750427 C-56.41522843 152.91124386 -58.28756272 121.74822077 -58.34542847 94.39256287 C-58.3453479 93.56063416 -58.34526733 92.72870544 -58.34518433 91.87156677 C-58.34737919 89.34454182 -58.36564775 86.81794925 -58.38449097 84.29100037 C-58.43150006 71.08893147 -57.57599479 58.26493695 -53.78488159 45.52928162 C-53.56356567 44.76857361 -53.34224976 44.0078656 -53.11422729 43.22410583 C-48.38932185 27.27904087 -41.07725312 12.53179811 -26.05268669 4.19517422 C-17.50880152 -0.17659366 -9.41646769 -0.11997051 0 0 Z " fill="#FEFEFE" transform="translate(544.1598815917969,697.1582183837891)"/>
</svg>
