<svg version="1.1" xmlns="http://www.w3.org/2000/svg" width="32" height="32" viewBox="0 0 32 32">
<title>map-marker</title>
<path d="M15.8638 31.597c0 0 0 0 0 0 -0.2267 0 -0.4407 -0.1262 -0.5669 -0.3154 -0.0256 -0.0375 -2.1925 -3.6032 -4.3346 -7.7111 -2.8983 -5.5689 -4.3721 -9.4629 -4.3721 -11.5419 0.0375 -2.4951 1.0331 -4.8128 2.7968 -6.539 1.7765 -1.739 4.1198 -2.6715 6.6021 -2.6331 2.432 0.0256 4.725 0.9957 6.4512 2.709 1.7262 1.7262 2.6834 4.0192 2.7218 6.4512 0 0 0 0 0 0.0128 0 2.0791 -1.4738 5.9721 -4.3849 11.5419 -2.1422 4.1079 -4.309 7.6736 -4.3346 7.7111 -0.139 0.2021 -0.3529 0.3154 -0.5797 0.3154zM15.8638 4.1665c-2.0919 0 -4.0576 0.8064 -5.557 2.2683 -1.525 1.4866 -2.3689 3.4779 -2.4064 5.6073 0 1.2727 0.7305 4.2213 4.2331 10.9239 1.4619 2.8096 2.9486 5.3678 3.7294 6.6907 0.7808 -1.323 2.2683 -3.8811 3.7294 -6.6907 3.5026 -6.7035 4.2331 -9.6393 4.2331 -10.9239 -0.0256 -2.0919 -0.8567 -4.0576 -2.3314 -5.5314s-3.4395 -2.3058 -5.5314 -2.3314c-0.0256 -0.0128 -0.0631 -0.0128 -0.1006 -0.0128z"></path>
<path d="M31.1223 31.9874h-30.4668c-0.3657 0 -0.6555 -0.2898 -0.6555 -0.6555s0.2898 -0.6555 0.6555 -0.6555h30.4668c0.3657 0 0.6555 0.2898 0.6555 0.6555s-0.2898 0.6555 -0.6555 0.6555z"></path>
<path d="M15.8757 6.775c-2.848 0 -5.1657 2.3186 -5.1657 5.1657s2.3186 5.1657 5.1657 5.1657 5.1657 -2.3186 5.1657 -5.1657 -2.3186 -5.1657 -5.1657 -5.1657zM18.4841 14.2219c-0.0128 -0.0128 -0.139 -0.3154 -0.139 -0.3154 -0.1637 0.7689 -0.9198 1.1593 -1.1337 1.2727 -0.0631 -0.0503 -0.2523 -0.5797 -0.6427 -0.5925 -0.3657 0 -0.7305 0.416 -0.7561 0.4663v0c-0.0256 -0.0503 -0.3776 -0.4663 -0.7305 -0.4535 -0.4032 0.0128 -0.6053 0.5422 -0.6802 0.5925 -0.2139 -0.1134 -0.9454 -0.5038 -1.0706 -1.2599 0 0 -0.139 0.3026 -0.1509 0.3154 -1.2974 -1.6887 0 -2.9102 0.1134 -3.0363 0.2642 -0.3273 0.1509 -0.4663 0.1262 -0.5797 -0.0631 -0.2139 -0.0878 -0.4535 -0.0503 -0.6674 0.0631 -0.1893 0.1134 -0.3776 0.139 -0.5797 -0.0128 -0.1765 -0.0375 -0.3401 -0.0878 -0.5038l0.3904 -0.1509c0.0256 0.139 0.0878 0.2642 0.1893 0.3529 0.1134 0.0878 0.3273 0.2021 0.5797 0.3657 0.1262 0.0759 0.2395 0.1765 0.3401 0.277 0.3401 -0.0759 0.6802 -0.1262 1.0331 -0.1262v0c0.3401 0 0.693 0.0503 1.0331 0.1262 0.1134 -0.1006 0.2267 -0.2021 0.3529 -0.277 0.2642 -0.1637 0.4791 -0.277 0.5925 -0.3657 0.1006 -0.1006 0.1765 -0.2267 0.2021 -0.3776l0.3776 0.1509c-0.0503 0.1637 -0.1006 0.3273 -0.1134 0.5038 0.0256 0.2021 0.0631 0.3904 0.1134 0.5797 0.0256 0.2267 0 0.4535 -0.0759 0.6674 -0.0375 0.1134 -0.1637 0.2523 0.0878 0.5797 0.1134 0.1262 1.3486 1.3358 -0.0375 3.0363v0z"></path>
</svg>
