<svg version="1.1" xmlns="http://www.w3.org/2000/svg" width="32" height="32" viewBox="0 0 32 32">
<title>vimeo</title>
<path d="M0 0v32h32v-32h-32zM26.9 10.6c-0.1 2.3-1.7 5.3-4.7 9.2-3.1 4.1-5.8 6.1-8 6.1-1.3 0-2.5-1.2-3.4-3.7-0.6-2.3-1.2-4.6-1.9-6.8-0.7-2.5-1.4-3.7-2.2-3.7-0.2 0-0.8 0.4-1.8 1.1l-1.1-1.4c1.1-1 2.3-2 3.4-3 1.5-1.3 2.7-2 3.4-2.1 1.8-0.2 2.9 1.1 3.3 3.7 0.4 2.8 0.8 4.6 0.9 5.3 0.5 2.4 1.1 3.5 1.7 3.5 0.5 0 1.2-0.8 2.2-2.3s1.5-2.7 1.6-3.5c0.1-1.3-0.4-2-1.6-2-0.6 0-1.1 0.1-1.7 0.4 1.1-3.7 3.3-5.5 6.5-5.4 2.4 0.1 3.6 1.6 3.4 4.6z"></path>
</svg>
