<?xml version="1.0" encoding="UTF-8"?>
<svg id="Layer_1" data-name="Layer 1" xmlns="http://www.w3.org/2000/svg" viewBox="0 0 44 44">
  <defs>
    <style>
      .cls-1 {
        fill: currentColor;
      }
    </style>
  </defs>
  <polygon class="cls-1" points="22.22 20.06 16.4 11.68 13.28 11.68 20.49 22.07 21.41 23.4 27.6 32.32 30.72 32.32 23.14 21.39 22.22 20.06"/>
  <path class="cls-1" d="M22,0C9.85,0,0,9.85,0,22s9.85,22,22,22,22-9.85,22-22S34.15,0,22,0ZM31.81,33.89h-5.03l-1.09-1.57-5.34-7.69-7.98,9.26h-2.07l9.12-10.59-8.06-11.62-1.09-1.57h6.94l1.09,1.57,4.97,7.16,7.52-8.73h2.07l-8.67,10.06,8.43,12.15,1.09,1.57h-1.91Z"/>
</svg>