<?xml version="1.0" encoding="UTF-8"?>
<svg id="Layer_1" data-name="Layer 1" xmlns="http://www.w3.org/2000/svg" width="32" height="32" viewBox="0 0 32 32">
  <defs>
    <style>
      .cls-1 {
        fill: currentColor;
      }
    </style>
  </defs>
  <g transform="scale(0.7272727273)">
    <path class="cls-1" d="M22,0C9.85,0,0,9.85,0,22s9.85,22,22,22,22-9.85,22-22S34.15,0,22,0ZM35.2,28.68c-.23.87-.95,2.04-2.44,2.45-.98.25-2.7.38-4.67.46-1.97.08-4.17.1-6.1.12h0c-3.85-.05-8.82-.08-10.77-.58-1.49-.41-2.21-1.58-2.44-2.45-.39-1.26-.58-4.63-.58-6.68s.19-5.42.58-6.68c.23-.87.95-2.04,2.44-2.45.98-.25,2.7-.38,4.67-.46,1.97-.08,4.17-.1,6.1-.12h0c3.85.05,8.82.08,10.77.58,1.49.41,2.21,1.58,2.44,2.45.38,1.26.58,4.63.58,6.68s-.19,5.42-.58,6.68Z"/>
    <polygon class="cls-1" points="19.18 26.1 26.38 22 19.18 17.9 19.18 26.1"/>
  </g>
</svg>